<mxfile host="app.diagrams.net" modified="2023-06-06T09:54:01.225Z" agent="Mozilla/5.0 (Windows NT 10.0; Win64; x64) AppleWebKit/537.36 (KHTML, like Gecko) Chrome/114.0.0.0 Safari/537.36 Edg/114.0.1823.37" etag="lb-G_DVGcaVTAkIABLhE" version="21.3.7" type="github">
  <diagram name="第 1 页" id="i5FIm3q950n9KSqlQCch">
    <mxGraphModel dx="996" dy="590" grid="1" gridSize="10" guides="1" tooltips="1" connect="1" arrows="1" fold="1" page="1" pageScale="1" pageWidth="827" pageHeight="1169" math="0" shadow="0">
      <root>
        <mxCell id="0" />
        <mxCell id="1" parent="0" />
        <mxCell id="GjJys4Jc2APFSqhqkbaA-5" style="edgeStyle=orthogonalEdgeStyle;rounded=0;orthogonalLoop=1;jettySize=auto;html=1;entryX=0;entryY=0.5;entryDx=0;entryDy=0;" edge="1" parent="1" source="GjJys4Jc2APFSqhqkbaA-1" target="GjJys4Jc2APFSqhqkbaA-3">
          <mxGeometry relative="1" as="geometry">
            <mxPoint x="210" y="340" as="targetPoint" />
            <Array as="points">
              <mxPoint x="280" y="320" />
            </Array>
          </mxGeometry>
        </mxCell>
        <mxCell id="GjJys4Jc2APFSqhqkbaA-1" value="数据采集系统&lt;br&gt;（esp32+arduino）" style="rounded=0;whiteSpace=wrap;html=1;" vertex="1" parent="1">
          <mxGeometry x="220" y="160" width="120" height="60" as="geometry" />
        </mxCell>
        <mxCell id="GjJys4Jc2APFSqhqkbaA-6" style="edgeStyle=orthogonalEdgeStyle;rounded=0;orthogonalLoop=1;jettySize=auto;html=1;entryX=1;entryY=0.5;entryDx=0;entryDy=0;" edge="1" parent="1" source="GjJys4Jc2APFSqhqkbaA-2" target="GjJys4Jc2APFSqhqkbaA-3">
          <mxGeometry relative="1" as="geometry">
            <Array as="points">
              <mxPoint x="520" y="320" />
            </Array>
          </mxGeometry>
        </mxCell>
        <mxCell id="GjJys4Jc2APFSqhqkbaA-2" value="电机控制系统&lt;br&gt;（esp32+arduino）" style="rounded=0;whiteSpace=wrap;html=1;" vertex="1" parent="1">
          <mxGeometry x="460" y="160" width="120" height="60" as="geometry" />
        </mxCell>
        <mxCell id="GjJys4Jc2APFSqhqkbaA-7" style="edgeStyle=orthogonalEdgeStyle;rounded=0;orthogonalLoop=1;jettySize=auto;html=1;entryX=0.5;entryY=0;entryDx=0;entryDy=0;" edge="1" parent="1" source="GjJys4Jc2APFSqhqkbaA-3" target="GjJys4Jc2APFSqhqkbaA-4">
          <mxGeometry relative="1" as="geometry" />
        </mxCell>
        <mxCell id="GjJys4Jc2APFSqhqkbaA-3" value="后端服务器&lt;br&gt;（Nodejs+MySQL）" style="rounded=0;whiteSpace=wrap;html=1;" vertex="1" parent="1">
          <mxGeometry x="340" y="290" width="120" height="60" as="geometry" />
        </mxCell>
        <mxCell id="GjJys4Jc2APFSqhqkbaA-4" value="前端服务器&lt;br&gt;（Vue+Echats）" style="rounded=0;whiteSpace=wrap;html=1;" vertex="1" parent="1">
          <mxGeometry x="340" y="480" width="120" height="60" as="geometry" />
        </mxCell>
      </root>
    </mxGraphModel>
  </diagram>
</mxfile>
